<?xml version="1.0" encoding="UTF-8" standalone="no"?>
<svg
   version="1.1"
   viewBox="0 0 11.450045 6.3831506"
   id="svg1"
   sodipodi:docname="Hash-four.svg"
   width="11.450045"
   height="6.3831506"
   inkscape:version="1.3 (0e150ed, 2023-07-21)"
   xmlns:inkscape="http://www.inkscape.org/namespaces/inkscape"
   xmlns:sodipodi="http://sodipodi.sourceforge.net/DTD/sodipodi-0.dtd"
   xmlns="http://www.w3.org/2000/svg"
   xmlns:svg="http://www.w3.org/2000/svg">
  <sodipodi:namedview
     id="namedview1"
     pagecolor="#ffffff"
     bordercolor="#000000"
     borderopacity="0.25"
     inkscape:showpageshadow="2"
     inkscape:pageopacity="0.0"
     inkscape:pagecheckerboard="0"
     inkscape:deskcolor="#d1d1d1"
     inkscape:zoom="16"
     inkscape:cx="-2.375"
     inkscape:cy="10.9375"
     inkscape:window-width="2560"
     inkscape:window-height="1387"
     inkscape:window-x="0"
     inkscape:window-y="25"
     inkscape:window-maximized="1"
     inkscape:current-layer="svg1" />
  <defs
     id="defs1">
    <style
       id="style1">&#10;      .cls-1 {&#10;        fill: #fff;&#10;      }&#10;    </style>
  </defs>
  <!-- Generator: Adobe Illustrator 28.7.1, SVG Export Plug-In . SVG Version: 1.2.0 Build 142)  -->
  <g
     id="g1"
     transform="translate(-23.627312,-12.113274)"
     style="opacity:0.8">
    <g
       id="Layer_1">
      <path
         class="cls-1"
         d="M 0,0 V 70 H 72 V 0 Z M 0.3,25.2 44.8,0.3 45.5,1.6 1,26.5 Z M 3.6,29.7 48.1,4.8 48.8,6.1 4.4,31 3.7,29.7 Z m 2.8,4.9 44.5,-25 0.7,1.3 -44.5,25 z M 9.5,39.2 54,14.3 54.7,15.6 10.2,40.5 Z m 2.5,5 44.5,-24.9 0.7,1.3 -44.5,24.9 z m 2.3,4.8 44.5,-24.9 0.7,1.3 -44.5,25 -0.7,-1.3 z m 3.4,4.5 44.5,-24.9 0.7,1.3 -44.5,24.9 z m 2.8,4.9 44.5,-24.9 0.7,1.3 -44.5,24.9 z m 3.1,4.6 44.5,-24.9 0.7,1.3 -44.5,24.9 z m 3.2,6.4 -0.7,-1.3 44.5,-24.9 0.7,1.3 z"
         id="path1" />
    </g>
  </g>
</svg>
